:FULLY-SPECIFIED
:FORCE-ALL-JOINTS-BE-3DOF
:DEGREES
544
root 8.25341 13.9525 -3.52183 179.573 46.9321 177.267
lfemur 0 0 0
ltibia 0 0 0
lfoot -39.1591 -12.5129 0.0648838
ltoes -3.77913 0 0
rfemur -49.0413 -7.62754 -2.95138
rtibia 0 0 0
rfoot -9.62987 0.73624 0.0973054
rtoes 0 0 0
lowerback 12.9438 0.621403 1.67235
upperback 6.8608 1.95491 6.80494
thorax -0.22735 1.25839 5.95371
lowerneck -2.02412 -15.6514 -5.82287
upperneck 8.43281 -21.2465 8.63278
head 4.40988 -10.2895 2.30934
lclavicle 0 0 0
lhumerus 0 0 0
lradius 55.4643 -0 0
lwrist 30.9597 0 0
lhand 0 0 0
lfingers 0 0 0
lthumb 2.24615 27.1118 -0.0151818
rclavicle 0 0 0
rhumerus 0 0 0
rradius 134.811 -0 0
rwrist -44.9561 0 0
rhand 0 0 0
rfingers 0 0 0
rthumb 0 0 0
545
root 8.29207 13.9287 -3.49426 179.45 46.6425 177.193
lfemur 0 0 0
ltibia 0 0 0
lfoot -39.393 -12.9654 0.0305191
ltoes -3.68385 0 0
rfemur -49.0728 -7.9 -2.89648
rtibia 0 0 0
rfoot -10.2403 0.477918 0.0457613
rtoes 0 0 0
lowerback 12.9667 0.612274 1.66688
upperback 6.92131 1.94757 6.80512
thorax -0.175576 1.257 5.95891
lowerneck -1.91965 -15.6446 -5.80025
upperneck 8.30802 -21.2414 8.72838
head 4.36212 -10.2888 2.34752
lclavicle 0 0 0
lhumerus 0 0 0
lradius 55.3315 -0 0
lwrist 31.3016 0 0
lhand 0 0 0
lfingers 0 0 0
lthumb 2.03263 27.2285 -0.00714233
rclavicle 0 0 0
rhumerus 0 0 0
rradius 134.762 -0 0
rwrist -44.8669 0 0
rhand 0 0 0
rfingers 0 0 0
rthumb 0 0 0
546
root 8.32205 13.9189 -3.47013 179.373 46.4605 177.148
lfemur 0 0 0
ltibia 0 0 0
lfoot -39.5397 -13.2495 0.0079872
ltoes -3.624 0 0
rfemur -49.0928 -8.07115 -2.86189
rtibia 0 0 0
rfoot -10.6236 0.315926 0.0119749
rtoes 0 0 0
lowerback 12.981 0.606541 1.66344
upperback 6.95931 1.94296 6.80523
thorax -0.143051 1.25612 5.96218
lowerneck -1.85402 -15.6403 -5.78602
upperneck 8.22963 -21.2382 8.78843
head 4.33213 -10.2883 2.37151
lclavicle 0 0 0
lhumerus 0 0 0
lradius 55.2481 -0 0
lwrist 31.5164 0 0
lhand 0 0 0
lfingers 0 0 0
lthumb 1.8985 27.3019 -0.00186946
rclavicle 0 0 0
rhumerus 0 0 0
rradius 134.731 -0 0
rwrist -44.8108 0 0
rhand 0 0 0
rfingers 0 0 0
rthumb 0 0 0
547
root 8.3426 13.9245 -3.44966 179.347 46.3973 177.132
lfemur -33.6469 -5.88619 -15.0556
ltibia 88.9407 0 0
lfoot -39.5906 -13.3481 0
ltoes -3.60323 0 0
rfemur -49.0997 -8.13052 -2.84987
rtibia 65.5231 0 0
rfoot -10.7566 0.259778 0
rtoes -39.0929 0 0
lowerback 12.986 0.604552 1.66225
upperback 6.9725 1.94136 6.80527
thorax -0.131767 1.25582 5.96331
lowerneck -1.83125 -15.6388 -5.78109
upperneck 8.20244 -21.237 8.80926
head 4.32172 -10.2881 2.37983
lclavicle 9.85972e-14 6.36111e-15 0
lhumerus -46.01 -11.1851 103.032
lradius 55.2192 0 0
lwrist 31.5909 0 0
lhand -24.6475 -2.6444 0
lfingers 7.12502 0 0
lthumb 1.85197 27.3273 0
rclavicle 9.85972e-14 6.36111e-15 0
rhumerus 6.08594 19.7702 -89.381
rradius 134.72 0 0
rwrist -44.7914 0 0
rhand -29.263 -22.8451 0
rfingers 7.12502 0 0
rthumb -2.6057 -52.809 0
548
root 8.35382 13.9475 -3.43358 0 0 0
lfemur 0 0 0
ltibia 0 0 0
lfoot 0 0 0
ltoes 0 0 0
rfemur -49.0443 -8.08613 -2.5615
rtibia 0 0 0
rfoot 0 0 0
rtoes -39.0395 0 0
lowerback 12.8456 0.570184 1.57361
upperback 6.86257 1.86551 6.72959
thorax 0 0 0
lowerneck 0 0 0
upperneck 0 0 0
head 0 0 0
lclavicle 0 0 0
lhumerus 0 0 0
lradius 55.2046 -0 0
lwrist 0 0 0
lhand 0 0 0
lfingers 0 0 0
lthumb 0 0 0
rclavicle 0 0 0
rhumerus 6.63251 19.7639 -88.9816
rradius 134.701 -0 0
rwrist -44.7672 0 0
rhand 0 0 0
rfingers 0 0 0
rthumb 0 0 0
549
root 8.35669 13.9881 -3.42219 0 0 0
lfemur 0 0 0
ltibia 0 0 0
lfoot 0 0 0
ltoes 0 0 0
rfemur -48.9726 -8.02938 -2.19024
rtibia 0 0 0
rfoot 0 0 0
rtoes -38.9707 0 0
lowerback 12.665 0.52562 1.45962
upperback 6.7212 1.76765 6.63239
thorax 0 0 0
lowerneck 0 0 0
upperneck 0 0 0
head 0 0 0
lclavicle 0 0 0
lhumerus 0 0 0
lradius 55.1858 -0 0
lwrist 0 0 0
lhand 0 0 0
lfingers 0 0 0
lthumb 0 0 0
rclavicle 0 0 0
rhumerus 7.336 19.7504 -88.4675
rradius 134.677 -0 0
rwrist -44.736 0 0
rhand 0 0 0
rfingers 0 0 0
rthumb 0 0 0
550
root 8.35177 14.0448 -3.41509 0 0 0
lfemur 0 0 0
ltibia 0 0 0
lfoot 0 0 0
ltoes 0 0 0
rfemur -48.8864 -7.9621 -1.74604
rtibia 0 0 0
rfoot 0 0 0
rtoes -38.8884 0 0
lowerback 12.449 0.471831 1.32343
upperback 6.5523 1.65025 6.51642
thorax 0 0 0
lowerneck 0 0 0
upperneck 0 0 0
head 0 0 0
lclavicle 0 0 0
lhumerus 0 0 0
lradius 55.1632 -0 0
lwrist 0 0 0
lhand 0 0 0
lfingers 0 0 0
lthumb 0 0 0
rclavicle 0 0 0
rhumerus 8.17737 19.7265 -87.8528
rradius 134.648 -0 0
rwrist -44.6987 0 0
rhand 0 0 0
rfingers 0 0 0
rthumb 0 0 0
551
root 8.33963 14.1158 -3.41186 0 0 0
lfemur 0 0 0
ltibia 0 0 0
lfoot 0 0 0
ltoes 0 0 0
rfemur -48.7873 -7.88608 -1.23881
rtibia 0 0 0
rfoot 0 0 0
rtoes -38.7944 0 0
lowerback 12.2025 0.409788 1.16817
upperback 6.35974 1.5158 6.38444
thorax 0 0 0
lowerneck 0 0 0
upperneck 0 0 0
head 0 0 0
lclavicle 0 0 0
lhumerus 0 0 0
lradius 55.1375 -0 0
lwrist 0 0 0
lhand 0 0 0
lfingers 0 0 0
lthumb 0 0 0
rclavicle 0 0 0
rhumerus 9.13745 19.6889 -87.1516
rradius 134.615 -0 0
rwrist -44.6561 0 0
rhand 0 0 0
rfingers 0 0 0
rthumb 0 0 0
552
root 8.32084 14.1995 -3.4121 0 0 0
lfemur 0 0 0
ltibia 0 0 0
lfoot 0 0 0
ltoes 0 0 0
rfemur -48.6771 -7.80313 -0.678493
rtibia 0 0 0
rfoot 0 0 0
rtoes -38.6906 0 0
lowerback 11.9305 0.340481 0.996996
upperback 6.14743 1.36676 6.23919
thorax 0 0 0
lowerneck 0 0 0
upperneck 0 0 0
head 0 0 0
lclavicle 0 0 0
lhumerus 0 0 0
lradius 55.1091 -0 0
lwrist 0 0 0
lhand 0 0 0
lfingers 0 0 0
lthumb 0 0 0
rclavicle 0 0 0
rhumerus 10.197 19.6344 -86.3782
rradius 134.579 -0 0
rwrist -44.609 0 0
rhand 0 0 0
rfingers 0 0 0
rthumb 0 0 0
553
root 8.29595 14.2943 -3.41541 0 0 0
lfemur 0 0 0
ltibia 0 0 0
lfoot 0 0 0
ltoes 0 0 0
rfemur -48.5576 -7.715 -0.0750193
rtibia 0 0 0
rfoot 0 0 0
rtoes -38.5789 0 0
lowerback 11.6378 0.264936 0.813024
upperback 5.91922 1.20567 6.08339
thorax 0 0 0
lowerneck 0 0 0
upperneck 0 0 0
head 0 0 0
lclavicle 0 0 0
lhumerus 0 0 0
lradius 55.0786 -0 0
lwrist 0 0 0
lhand 0 0 0
lfingers 0 0 0
lthumb 0 0 0
rclavicle 0 0 0
rhumerus 11.3366 19.5607 -85.547
rradius 134.54 -0 0
rwrist -44.5583 0 0
rhand 0 0 0
rfingers 0 0 0
rthumb 0 0 0
554
root 8.26555 14.3986 -3.42138 0 0 0
lfemur 0 0 0
ltibia 0 0 0
lfoot 0 0 0
ltoes 0 0 0
rfemur -48.4305 -7.62339 0.561678
rtibia 0 0 0
rfoot 0 0 0
rtoes -38.4609 0 0
lowerback 11.3292 0.184223 0.619366
upperback 5.67896 1.03505 5.91974
thorax 0 0 0
lowerneck 0 0 0
upperneck 0 0 0
head 0 0 0
lclavicle 0 0 0
lhumerus 0 0 0
lradius 55.0463 -0 0
lwrist 0 0 0
lhand 0 0 0
lfingers 0 0 0
lthumb 0 0 0
rclavicle 0 0 0
rhumerus 12.5368 19.4662 -84.6725
rradius 134.499 -0 0
rwrist -44.5048 0 0
rhand 0 0 0
rfingers 0 0 0
rthumb 0 0 0
555
root 8.23018 14.5107 -3.42961 0 0 0
lfemur 0 0 0
ltibia 0 0 0
lfoot 0 0 0
ltoes 0 0 0
rfemur -48.2977 -7.52992 1.22166
rtibia 0 0 0
rfoot 0 0 0
rtoes -38.3387 0 0
lowerback 11.0097 0.0994679 0.41911
upperback 5.43047 0.857484 5.7509
thorax 0 0 0
lowerneck 0 0 0
upperneck 0 0 0
head 0 0 0
lclavicle 0 0 0
lhumerus 0 0 0
lradius 55.0129 -0 0
lwrist 0 0 0
lhand 0 0 0
lfingers 0 0 0
lthumb 0 0 0
rclavicle 0 0 0
rhumerus 13.7782 19.35 -83.7691
rradius 134.456 -0 0
rwrist -44.4494 0 0
rhand 0 0 0
rfingers 0 0 0
rthumb 0 0 0
556
root 8.19043 14.6291 -3.43969 0 0 0
lfemur 0 0 0
ltibia 0 0 0
lfoot 0 0 0
ltoes 0 0 0
rfemur -48.1611 -7.43614 1.89499
rtibia 0 0 0
rfoot 0 0 0
rtoes -38.214 0 0
lowerback 10.6841 0.0118608 0.215319
upperback 5.17754 0.675602 5.57945
thorax 0 0 0
lowerneck 0 0 0
upperneck 0 0 0
head 0 0 0
lclavicle 0 0 0
lhumerus 0 0 0
lradius 54.9788 -0 0
lwrist 0 0 0
lhand 0 0 0
lfingers 0 0 0
lthumb 0 0 0
rclavicle 0 0 0
rhumerus 15.0414 19.2125 -82.8512
rradius 134.412 -0 0
rwrist -44.3929 0 0
rhand 0 0 0
rfingers 0 0 0
rthumb 0 0 0
557
root 8.14685 14.7521 -3.45122 0 0 0
lfemur 0 0 0
ltibia 0 0 0
lfoot 0 0 0
ltoes 0 0 0
rfemur -48.0228 -7.3435 2.57171
rtibia 0 0 0
rfoot 0 0 0
rtoes -38.0888 0 0
lowerback 10.3572 -0.0773427 0.0110288
upperback 4.92391 0.492064 5.40798
thorax 0 0 0
lowerneck 0 0 0
upperneck 0 0 0
head 0 0 0
lclavicle 0 0 0
lhumerus 0 0 0
lradius 54.9445 -0 0
lwrist 0 0 0
lhand 0 0 0
lfingers 0 0 0
lthumb 0 0 0
rclavicle 0 0 0
rhumerus 16.3072 19.0551 -81.9331
rradius 134.368 -0 0
rwrist -44.3361 0 0
rhand 0 0 0
rfingers 0 0 0
rthumb 0 0 0
558
root 8.10001 14.878 -3.46379 0 0 0
lfemur 0 0 0
ltibia 0 0 0
lfoot 0 0 0
ltoes 0 0 0
rfemur -47.8849 -7.25338 3.24189
rtibia 0 0 0
rfoot 0 0 0
rtoes -37.9647 0 0
lowerback 10.0338 -0.166818 -0.190754
upperback 4.67332 0.30958 5.239
thorax 0 0 0
lowerneck 0 0 0
upperneck 0 0 0
head 0 0 0
lclavicle 0 0 0
lhumerus 0 0 0
lradius 54.9105 -0 0
lwrist 0 0 0
lhand 0 0 0
lfingers 0 0 0
lthumb 0 0 0
rclavicle 0 0 0
rhumerus 17.5566 18.8805 -81.0287
rradius 134.325 -0 0
rwrist -44.2798 0 0
rhand 0 0 0
rfingers 0 0 0
rthumb 0 0 0
559
root 8.05047 15.0052 -3.47699 0 0 0
lfemur 0 0 0
ltibia 0 0 0
lfoot 0 0 0
ltoes 0 0 0
rfemur -47.7493 -7.16703 3.89556
rtibia 0 0 0
rfoot 0 0 0
rtoes -37.8437 0 0
lowerback 9.71868 -0.255174 -0.387054
upperback 4.42946 0.130903 5.07497
thorax 0 0 0
lowerneck 0 0 0
upperneck 0 0 0
head 0 0 0
lclavicle 0 0 0
lhumerus 0 0 0
lradius 54.8774 -0 0
lwrist 0 0 0
lhand 0 0 0
lfingers 0 0 0
lthumb 0 0 0
rclavicle 0 0 0
rhumerus 18.7707 18.6923 -80.1517
rradius 134.282 -0 0
rwrist -44.225 0 0
rhand 0 0 0
rfingers 0 0 0
rthumb 0 0 0
560
root 7.99881 15.1322 -3.49043 0 0 0
lfemur 0 0 0
ltibia 0 0 0
lfoot 0 0 0
ltoes 0 0 0
rfemur -47.6183 -7.08564 4.52276
rtibia 0 0 0
rfoot 0 0 0
rtoes -37.7276 0 0
lowerback 9.41667 -0.340955 -0.574925
upperback 4.19598 -0.0411716 4.91832
thorax 0 0 0
lowerneck 0 0 0
upperneck 0 0 0
head 0 0 0
lclavicle 0 0 0
lhumerus 0 0 0
lradius 54.8457 -0 0
lwrist 0 0 0
lhand 0 0 0
lfingers 0 0 0
lthumb 0 0 0
rclavicle 0 0 0
rhumerus 19.9313 18.4952 -79.3154
rradius 134.242 -0 0
rwrist -44.1723 0 0
rhand 0 0 0
rfingers 0 0 0
rthumb 0 0 0
